<mxfile host="app.diagrams.net" modified="2023-08-29T01:03:04.280Z" agent="Mozilla/5.0 (Windows NT 10.0; Win64; x64) AppleWebKit/537.36 (KHTML, like Gecko) Chrome/116.0.0.0 Safari/537.36" etag="5yIGQsdo6m9FeVXfkq2t" version="21.6.9" type="github">
  <diagram name="第 1 页" id="eNavZxzioDSDNHBg3sO3">
    <mxGraphModel dx="934" dy="2900" grid="1" gridSize="10" guides="1" tooltips="1" connect="1" arrows="1" fold="1" page="1" pageScale="1" pageWidth="827" pageHeight="1169" math="0" shadow="0">
      <root>
        <mxCell id="0" />
        <mxCell id="1" parent="0" />
        <mxCell id="dZooPLLXQe413P6dKxfY-1" value="&lt;p style=&quot;text-align: left; line-height: 140%;&quot; class=&quot;MsoNormal&quot;&gt;例：Read conflict&lt;/p&gt;&lt;p style=&quot;text-align: left; line-height: 140%;&quot; class=&quot;MsoNormal&quot;&gt;&amp;nbsp; &amp;nbsp; 优先级高的process定义一个变量，在优先级低的process中多次调用；潜在的数据不一致风险：当优先级低的process中正在使用该变量，而优先级高的process中断发生，改变了该变量的赋值，之后，优先级低的process继续调用该改变之后的变量。&lt;/p&gt;&lt;p style=&quot;text-align: left; line-height: 140%;&quot; class=&quot;MsoNormal&quot;&gt;&amp;nbsp; &amp;nbsp; &amp;nbsp; GS的非message变量通过临时变量的方式避免该问题：&lt;/p&gt;&lt;p style=&quot;text-align: left; line-height: 140%;&quot; class=&quot;MsoNormal&quot;&gt;&amp;nbsp; &amp;nbsp; &amp;nbsp; void process_10ms (void)&amp;nbsp; &amp;nbsp; &amp;nbsp; &amp;nbsp; &amp;nbsp; &amp;nbsp; &amp;nbsp; &amp;nbsp; &amp;nbsp; &amp;nbsp; &amp;nbsp;/*supplier*/&lt;/p&gt;&lt;p style=&quot;text-align: left; line-height: 140%;&quot; class=&quot;MsoNormal&quot;&gt;&amp;nbsp; &amp;nbsp; &amp;nbsp; { x = a * b + c ;}&lt;/p&gt;&lt;p style=&quot;text-align: left; line-height: 140%;&quot; class=&quot;MsoNormal&quot;&gt;&amp;nbsp; &amp;nbsp; &amp;nbsp; void process_100ms(void)&amp;nbsp; &amp;nbsp; &amp;nbsp; &amp;nbsp; &amp;nbsp; &amp;nbsp; &amp;nbsp; &amp;nbsp; &amp;nbsp; &amp;nbsp; /*consumer*/&lt;/p&gt;&lt;p style=&quot;text-align: left; line-height: 140%;&quot; class=&quot;MsoNormal&quot;&gt;&amp;nbsp; &amp;nbsp; &amp;nbsp; {uint 16 x_temp;&amp;nbsp; &amp;nbsp; &amp;nbsp; &amp;nbsp; &amp;nbsp; &amp;nbsp; &amp;nbsp; &amp;nbsp; &amp;nbsp; &amp;nbsp; &amp;nbsp; &amp;nbsp; &amp;nbsp; &amp;nbsp; /*register or stack*/&lt;/p&gt;&lt;p style=&quot;text-align: left; line-height: 140%;&quot; class=&quot;MsoNormal&quot;&gt;&amp;nbsp; &amp;nbsp; &amp;nbsp; x_temp = x;&amp;nbsp; &amp;nbsp; &amp;nbsp; &amp;nbsp; &amp;nbsp; &amp;nbsp; &amp;nbsp; &amp;nbsp; &amp;nbsp; &amp;nbsp; &amp;nbsp; &amp;nbsp; &amp;nbsp; &amp;nbsp; /*make a copy of input x*/&amp;nbsp;&amp;nbsp;&lt;/p&gt;&lt;p style=&quot;text-align: left; line-height: 140%;&quot; class=&quot;MsoNormal&quot;&gt;&amp;nbsp; &amp;nbsp; &amp;nbsp; &amp;nbsp; &amp;nbsp; &amp;nbsp; &amp;nbsp; &amp;nbsp; &amp;nbsp; &amp;nbsp; &amp;nbsp; &amp;nbsp; &amp;nbsp; &amp;nbsp; &amp;nbsp; &amp;nbsp; &amp;nbsp; &amp;nbsp; &amp;nbsp; &amp;nbsp;/*change in x don’t have an effort*/&amp;nbsp; &amp;nbsp; &amp;nbsp; &amp;nbsp; &amp;nbsp; &amp;nbsp; &amp;nbsp; &amp;nbsp; &amp;nbsp; &amp;nbsp; &amp;nbsp; &amp;nbsp; &amp;nbsp; &amp;nbsp; &amp;nbsp; &amp;nbsp; &amp;nbsp; &amp;nbsp; &amp;nbsp; &amp;nbsp; &amp;nbsp; &amp;nbsp; &amp;nbsp; &amp;nbsp; &amp;nbsp; &amp;nbsp; &amp;nbsp; &amp;nbsp; &amp;nbsp; &amp;nbsp; &amp;nbsp; &amp;nbsp; &amp;nbsp; &amp;nbsp; &amp;nbsp; &amp;nbsp; &amp;nbsp; &amp;nbsp; &amp;nbsp; &amp;nbsp; &amp;nbsp; &amp;nbsp; &amp;nbsp; &amp;nbsp; &amp;nbsp; &amp;nbsp; &amp;nbsp; &amp;nbsp; &amp;nbsp; &amp;nbsp;&lt;/p&gt;&lt;p style=&quot;text-align: left; line-height: 140%;&quot; class=&quot;MsoNormal&quot;&gt;&amp;nbsp; &amp;nbsp; &amp;nbsp; &amp;nbsp;if (x_temp == 0)&amp;nbsp; &amp;nbsp; &amp;nbsp; &amp;nbsp; &amp;nbsp; &amp;nbsp; &amp;nbsp; &amp;nbsp; &amp;nbsp; &amp;nbsp; &amp;nbsp;/*to the following if - construct*/&amp;nbsp; &amp;nbsp; &amp;nbsp; &amp;nbsp; &amp;nbsp; &amp;nbsp; &amp;nbsp; &amp;nbsp; &amp;nbsp; &amp;nbsp; &amp;nbsp; &amp;nbsp; &amp;nbsp;&amp;nbsp;&lt;/p&gt;&lt;p style=&quot;text-align: left; line-height: 140%;&quot; class=&quot;MsoNormal&quot;&gt;&amp;nbsp; &amp;nbsp; &amp;nbsp; &amp;nbsp; { output = (uint16) MAXIMUM}&lt;/p&gt;&lt;p style=&quot;text-align: left; line-height: 140%;&quot; class=&quot;MsoNormal&quot;&gt;&amp;nbsp; &amp;nbsp; &amp;nbsp; &amp;nbsp; else {output = 1 / x_temp;}&lt;/p&gt;&lt;p style=&quot;text-align: left; line-height: 140%;&quot; class=&quot;MsoNormal&quot;&gt;&amp;nbsp; &amp;nbsp; &amp;nbsp; &amp;nbsp; }&lt;/p&gt;&lt;div style=&quot;text-align: left;&quot;&gt;&lt;br&gt;&lt;/div&gt;&lt;div style=&quot;text-align: left;&quot;&gt;&lt;div&gt;例 : write conflict&lt;/div&gt;&lt;div&gt;&amp;nbsp; &amp;nbsp; 优先级高的process调用某一变量，优先级低的process定义该变量；潜在的数据不一致风险：在优先级低的process的多个地方修改该变量，而优先级高的process中断可能发生在任意一个发生修改的地方；&lt;/div&gt;&lt;div&gt;&amp;nbsp; &amp;nbsp; &amp;nbsp;GS非message变量在低优先级的process中，只允许在一个地方发生修改：&lt;/div&gt;&lt;div&gt;&amp;nbsp; &amp;nbsp; &amp;nbsp;void process_10ms (void)&amp;nbsp; &amp;nbsp; &amp;nbsp; &amp;nbsp; &amp;nbsp; &amp;nbsp; &amp;nbsp; &amp;nbsp; &amp;nbsp; &amp;nbsp; &amp;nbsp; &amp;nbsp; &amp;nbsp; /* consumer */&lt;/div&gt;&lt;div&gt;&amp;nbsp; &amp;nbsp; &amp;nbsp;{ y = x; }&lt;/div&gt;&lt;div&gt;&amp;nbsp; &amp;nbsp; &amp;nbsp;void process_100ms(void)&amp;nbsp; &amp;nbsp; &amp;nbsp; &amp;nbsp; &amp;nbsp; &amp;nbsp; &amp;nbsp; &amp;nbsp; &amp;nbsp; &amp;nbsp; &amp;nbsp; &amp;nbsp; &amp;nbsp;/* supplier */&lt;/div&gt;&lt;div&gt;&amp;nbsp; &amp;nbsp; &amp;nbsp;{sint16 x_temp;&lt;/div&gt;&lt;div&gt;&amp;nbsp; &amp;nbsp; &amp;nbsp; x_temp = a * b + c ;&lt;/div&gt;&lt;div&gt;&amp;nbsp; &amp;nbsp; &amp;nbsp; if (x_temp &amp;gt; (sint16) MAXIMUM;)&amp;nbsp;&lt;/div&gt;&lt;div&gt;&amp;nbsp; &amp;nbsp; &amp;nbsp; {x_temp = (sint16)MAXIMUM;}&lt;/div&gt;&lt;div&gt;&amp;nbsp; &amp;nbsp; &amp;nbsp; else { if (x_temp &amp;lt; (sint16)MINIMUM)&lt;/div&gt;&lt;div&gt;&amp;nbsp; &amp;nbsp; &amp;nbsp; &amp;nbsp; &amp;nbsp; {x_temp = (sint16)MINIMUM}&lt;/div&gt;&lt;div&gt;&amp;nbsp; &amp;nbsp; &amp;nbsp;x = x_temp;&lt;/div&gt;&lt;div&gt;&amp;nbsp; &amp;nbsp; &amp;nbsp; &amp;nbsp; &amp;nbsp; &amp;nbsp; &amp;nbsp; &amp;nbsp;}&lt;/div&gt;&lt;div&gt;&amp;nbsp; &amp;nbsp; &amp;nbsp; &amp;nbsp;}&lt;/div&gt;&lt;div&gt;&lt;br&gt;&lt;/div&gt;&lt;/div&gt;" style="rounded=0;whiteSpace=wrap;html=1;" parent="1" vertex="1">
          <mxGeometry x="60" y="-1120" width="660" height="700" as="geometry" />
        </mxCell>
        <mxCell id="ek4nZCyJRECvu5gXV9vt-1" value="&lt;p style=&quot;text-indent:24.0pt;mso-char-indent-count:2.0&quot; class=&quot;MsoNormal&quot;&gt;对于多个逻辑表达式进行“&lt;span style=&quot;background:yellow;mso-highlight:&lt;br/&gt;yellow;mso-ansi-language:PL&quot; lang=&quot;PL&quot;&gt;AND&lt;/span&gt;&lt;span style=&quot;font-family:SimSun;&lt;br/&gt;mso-ascii-font-family:&amp;quot;Times New Roman&amp;quot;;mso-hansi-font-family:&amp;quot;Times New Roman&amp;quot;;&lt;br/&gt;background:yellow;mso-highlight:yellow;mso-ansi-language:PL&quot;&gt;”操作或“&lt;/span&gt;&lt;span style=&quot;background:yellow;mso-highlight:yellow;mso-ansi-language:PL&quot; lang=&quot;PL&quot;&gt;OR&lt;/span&gt;&lt;span style=&quot;font-family:SimSun;mso-ascii-font-family:&amp;quot;Times New Roman&amp;quot;;mso-hansi-font-family:&lt;br/&gt;&amp;quot;Times New Roman&amp;quot;;background:yellow;mso-highlight:yellow;mso-ansi-language:&lt;br/&gt;PL&quot;&gt;”操作，或者&lt;/span&gt;&lt;span style=&quot;background:yellow;mso-highlight:yellow;&lt;br/&gt;mso-ansi-language:PL&quot; lang=&quot;PL&quot;&gt;if..else&lt;/span&gt;&lt;span style=&quot;font-family:SimSun;&lt;br/&gt;mso-ascii-font-family:&amp;quot;Times New Roman&amp;quot;;mso-hansi-font-family:&amp;quot;Times New Roman&amp;quot;;&lt;br/&gt;background:yellow;mso-highlight:yellow;mso-ansi-language:PL&quot;&gt;的多层嵌套的，最容易满足使条件跳转的表达式放在第一个或最外层。&lt;/span&gt;&lt;span lang=&quot;PL&quot;&gt;&lt;/span&gt;&lt;/p&gt;&lt;img height=&quot;160&quot; width=&quot;493&quot; src=&quot;data:image/png;base64,iVBORw0KGgoAAAANSUhEUgAAAe0AAACgCAMAAAFh3PRZAAAAAXNSR0IArs4c6QAAAARnQU1BAACxjwv8YQUAAAMAUExURf////j4+L6+vomJiZaWltXV1fv7+9jY2I6OjouLi9vb2+np6aampmRkZExMTHt7e9TU1Obm5qioqKCgoNLS0vn5+c7Ozp+fn4aGhoyMjJKSkpCQkIiIiIWFha2trfPz8+fn54+Pj6enp6ysrMTExOvr6/7+/tnZ2bi4uMDAwOjo6JmZmbe3t/Ly8r+/v0BAQDs7O8XFxcjIyFBQUCoqKk9PT5WVleHh4fr6+rW1tTw8PCcnJ+7u7vX19bGxsWdnZ0VFRUFBQT4+PjAwMDU1NX5+fsnJyU5OTigoKDk5OUNDQ0dHR0REREpKSnJycra2tvDw8J2dnf39/XV1dczMzMvLy29vbywsLDIyMkhISNra2oCAgHx8fODg4LOzszQ0NN3d3SMjIwAAAEtLS66urn19fRwcHFdXV6GhoZiYmLu7u7y8vC0tLaKiolVVVSEhIS4uLmpqas/Pz/z8/GBgYMLCwh8fH2hoaJycnPT09Pf392FhYVFRUR4eHvb29u/v7+3t7b29vSkpKYODg+rq6vHx8bm5uRUVFYSEhI2NjWlpaZ6enklJSV5eXsPDwysrK8bGxsrKynBwcBoaGjo6On9/f6urq5SUlIGBgdzc3NHR0W1tbTc3N8HBwWJiYi8vL2tra1RUVDMzM1NTU1paWs3NzQUFBQwMDBsbG9fX1+zs7NbW1uXl5dDQ0GxsbJGRkYqKihkZGWVlZRgYGG5ubt7e3nNzc6SkpDExMaWlpZOTk9PT02NjY2ZmZlZWVoeHh3R0dLCwsLq6ug0NDSYmJjY2Njg4OFhYWBMTE1xcXHd3dz8/PyUlJeLi4hQUFF1dXV9fX8fHx1tbWyAgID09PQkJCaOjo3l5ea+vr3Z2doKCgh0dHU1NTbS0tEZGRnFxcampqeTk5EJCQllZWZeXl3h4eOPj45qamrKyspubm6qqqt/f3w4ODnp6eiQkJBISEhYWFhcXFxAQEAcHBwsLC1JSUiIiIgQEBAoKCg8PDwYGBgMDAxEREQgICAEBAQAAADNv9BgAAAEAdFJOU////////////////////////////////////////////////////////////////////////////////////////////////////////////////////////////////////////////////////////////////////////////////////////////////////////////////////////////////////////////////////////////////////////////////////////////////////////////////////////////////////////////////////wBT9wclAAAACXBIWXMAABcRAAAXEQHKJvM/AAAe8klEQVR4Xu1dzXkkKQytQMiAFBQCRwLg6yMHgiIPEiAUAuDEYd8TVP/Ynl17xm27ZuvZbtdfd7VKSEhCiG3bAv5+H3kLZUvJb1svvph19N2wm5W51VrbPvz2OxhflZJWimyx6rEPoGwDpPATetjMn3yRTwFomSSMLeXQP0pO2iJf0ua26EJeR78ZZPT+9zGA/A8z9HchIUjaSspbqlvbOp/jB1BLsRCGkMKo0jbxPps/k7B/Qd+c9E1ylGwhiXiy4Pc69w4UfACIS6W0De/cpHfS+354D1LjR27Z4xALsRdJsg3BN+aX+AA89VWwlFTetkXw6KuQ8XWTOHwH6Af/4RYJuhVs/yb8SYN2SxyKUNcV3f4AMr5KwE/cStjs/rW+DX7L2oJqBTXyYWrQBMEWCqmwPX07oD2ImF0d+G4fhAdPJHWo7QzFvw4+Cym7ttUmpVaI/5bw8pGeD7qni4MOSXzuRiAf1H3PgW2wLnq1FU8Wt4siAv3xbvQI5Wap3yKpbNjq/6nY71ULmqhsgQrvvYBwBtxXUvB5cwEKr3+kQVhvIzTsFkTwLo/OJLaPyKp2+/ckRnQPMtDCEh7eOvYsZNw85Qv7Q6mV35/fBQ9/487/D/aCpqB97DqA5gSTEwL+BbZmQQ87AiV8AS2BzDDea0f6f4YrtPKIWvirhpAP3kHucniymDjKQtbXBTXiqji3dfz9MPggAd8VanB6Ss8FDJNetmAksq1SYrIDiyhGz38ygu5MovXoaLR50FiCdQFZtbvD+vt4MHhvzPcl8bniHjVtTS2az4YrozdY3MWjmfcSDbycjvYGMg06G/qLpNDE4ynp+7767tt3kHKhZRha3kZ8RrNNRlocjYa0wavH86RfAlHG03S18+b4+ZCb8+NAXwEtBM8vAL4FOsrUjwMnq2DLQ0CeQyOeZNFb84lCCsUFMR6OGO+XTcYDBvf9sR/w23i+cfBr4IFDZq6QLhE/Hc+aTfqZoLhsCTwNzrEvZBOgrsq493hyJMhTe3T0yYGmKw0CWq0BLc+wIT4VU1HcM52OOm4Po9mYb3fUvxga0qp3D6MU46uFCQBlVD8QdPoNNAvOs/O/IoEtAdrOQBc9F4bCZTSKKFCy2HGbNUPvnZ+sEPTe0d/dhe3ebxnOffq/+wrfBw9JiPWmfkJJ/oL9BsaUJ7fHiB5eDW5TvaX3Ln4b2g248BR76g6M1SjVtXhTGILhvUm3o8nxVLDv8/euBu8N4XewPrI7ReEKeMv0W8gOmITz2PPAGK/2hDPYm2GHiqnYfrZRQkMAPhmaRUEzYM+Ae8M+oT0y0nO7o6mG9d55s3zGpHuLFqr5+WZv24LF7a1vGxxi7uNxN+zDVTyyUYIneMPdtgN350BaspujHfrZgGkppW5sNQav2cK3MgZeuQZsIxs4e+KnmLouiXRf0YhhU5eB3r1taMRoRr2iWRmSG/rmntGiHW4VnfegMvrozIY+bN4bR6rkFnwJbkvT2TsOnq15/g13PdTqLBU+NvCXjzZ7y51PR2jZtRbAtK3Y3Hwv23D2gobroYpz5r3B4hCf0JKSaQkeYjaeA8jGZzSiRKOA3tuWCmwEMOU3xt/eg25SdNHiFhUqGX5xd2VL897Q0mV0W7IPuX9ns/hD/IpnZCZjPdoLPIOzWxTDAQrex+MVDzGIh35UKbOdTTzjwT/j2XpxFj7XgDZqkiXlSIeL/j+0JjUi7h163MYT+tyo0eU+QBizTgT37ow4aGe7VUtzlPr5KZqxofHi7vjlM8Y9DDQwox4AXlps6J/w/wla5HsR4dYuWx4q5A1E57rL4rtz7BE5VtPqxt1nu+JPhU/2goYMpDhtVwlhj+5O0dLx40h7ZAT0IaC7qB96aICArp1CdOIzCZUISwQaTV8JjSPH3KyDFaZ0JxyLT9F1XwYQpXRDt0HAH0yGHZNunkK3if684Q1xtAbRP/G3Yzb9/xe8l9mPDwtj7o1+NUSTIfZ44Whs0JEusxkXI0ze48KU0NWPH9UWVQUBnVsSn9CpcXepfRIKJ3Wn28LYP7QqMHXnN4hnfB8qr3f0A3gljQBU/TxlylSVxXLz2LBmpSS6lNLbRosmszaegzEUiqNJ0PIvLz/x16MFqbPVBPj4uvEI2E0AfF68Qp6oUOBECHePrCW8WM1GFlp+MBLn0Ueow0BVkhsjWlCfAm9RTx0WKc4EQdWAE5OzfJ38F01Uu6QEv/RGdyrlyJ1hil6ZLB0ENd30nq5A0Fdi0s1OA0YCMwJsQvPQU8eFAGvzl2M2esH1ZV7G9z19oOXED0ejRLxEKT2lJi7BfhDNa6aUUEHUgzeY7JyUnk0Y3UAHmCI91ZTcWPEw9hhC3ZHsVmFK0c6cYYZjA4qvjJx7gBm86FYaw7SjJ92ZXSY8hCvdx9cP6Pt955yY6kJJpoNueU039CF6A+nVdov+oRjzvJl+J/4VH8sFufZh9+/aG+2RGi+b5duhG3MLZt/ONzeDu4W2zgwCWhxyERbNNez7w1GLNLd1YdK1+Bzwi6M5hZhD6FIKDXcYaKNKyb6pWR47s7Lp1+N5TQNXXKePa3P5+Jz1b0GOYBC9DDE91rLYBdbpNrXvpBsUYlsbxiI1oFdOHcznTsPx6I4U0zDg7VbEJ47PNKe2uE4iixyQEWckJWuYP2DbxlnFMOCVpYZX2uYdOmo8GpehpPEe586YxjOhmVFv4q3OMZhSYFxswuINMqfWeJ2PHirOLPvqh8Oz44dD3KqB32i04W2xmSC2QkCHRkQsjtTQ2pz/6FUaGV+ESTGDBxx6YQ7BsjF+PoprsfuEF2iVlhvzedQO9KPFVEOemoiGE2hTewnU5QxRbWU60cpviQUGlB+Vj+8AYM9pwG9QbTP6nE3jY+hHOCE5ejDQpK2B7nZHt8YLfPYxujaDB/wYHD4Ov4HFn/nvnlmTkY/HXmM/+5YmOPF1+GX3L2/G8jo0MUQ7dLwtTJmFV5ShnHupB7GfUipJQHeuUEcmF7UjWk8wEavzZhTYR9BH8PVaLmkSuQaFkkc/NMVY+nTx5vkDwIwEMwl0156jH8v6Ia0XboPiSD0c4C+wS2JUly48Y302N9PvAtuxh+PQDY/A5GCrzbakrWZN5lAb2HSTreQKvz11YW91pVvrSWjaCy7M1ZiGj7GciNuLwZUnTvw8RLbs/xkcrKxJdlRP9yWkuJ5d3Vx2rsBMo+wmDz3g3HFU2GuE6/CchnBeQ6QYkS03CaBecxzgJKd27JBs8vmiJrNkzU/DBnooDjYHzWMB1AphWBY0q3WjZOupwwLOwrTTjGFYhxvosy06p2texiS7mALr5Eq204I7h4Xzmn0EuoJMOoMOQfN10VUp+7k24+RGdt3HqY+J7Kds00Nm9SQ6yQyAxBkgISbZaORo2XCf+YT+gkY+yVYaSdtraCNnsjJoDtk25qWk2t5OSzkIbAhk3Ix4vV1tRY9yrh8LJgZTeGmDUXpo4T5x4lc4tI3ye5AS/IXGqS+1vllYqlac8fBTKyteaAIurufBYwRL30bjlG3Aujijxi/R4jAxSI/Rjjh7gIFOwGgo/bAwPqvbQsN8jsfpWLS+LG4y7VDTlEGz9okD5vyR7RqQkz1rcoPkbO2cdFRgyLatqjmr4GFyu4F+NXPwCLqxR+7iZ1QNINlJLflZMosVphe3J9m1ZpzWSjfgdi+HziO5kU2SOylxvaPZJ7wuUdf8GTZychvHuH34Rr7IZirF20EJTQnbZdtnHwoM2d7oyR4XJcyitDGnxPoFb4CLA7BYm1blt84xGzARbz6kEydO/DWQtnk3bbZoV0L9I3TGSLyGd/jH2B4PHlcxhrRN00aSM047/xewNY9at5ILsx+0ljlHJmEM/EKNHgJ+jZBqdiFt2dfQyBUt+sAqByAbZq4G8Y6L0P3QRj7HEQkPhw29PF9no1eysSPGwQiYZMNWOFqlm3uAgZPF06gnAqTZ6yywxftJdi8shqLp09rIj5J1+SZIthKs3FZTPsKaKZvH65rqcOU2yFVuM2R79Ea+yGZSLXw1bEnkCjCClwdug7dco4G2P0zeo5M99rB07b+q+XFVaTLCZnEZDF0zcj5yiRBGJdbWPsj2EnrBfOGfqjK6uMfIJD9x4vlQedA6vnTzRUWEISCozL9FSt4KRLeU0MlzfkVCLxk4N44r93AqwrEHLKdaJAs1W2xqPh7hDv55liFlf4AeUO0dkq3Tig8Nm3OMOTspF8fZftkbHOmpL9I0a26SLVey2SseG8zOZzUkrkDCgL0D2bAI/O7aaDasHc7BRNBHYEA2djUSeFyA3nDJmfMeJ9mMbZLWJbyL28FTthfZzV3HMI4KWKpa9IXrWEB8t76TvQIYWjBMGzlcOIo/XLg9IevAIEUlW/ByWBmmjAB3/J5syrPBRZzrULOtOBW7YXrskeFJXWQ2hYejbkKDHwOPBsemSy4kTy/iKJSv6uwZa+2xyT5xKKjF+AHcRpK5vf7rC/auZ348fqlW5c0YcpmRF+GIuU4lhBTjEDZ4Rgeffz7wLamKJ65fGRvcfhweXWd7pG+xeYdeSwsW8VVYKVbPzIt+NnxKjIOif0kwocqMn3EGqBRXBaaVr+RoxJFqll21RldNQ5clWowpLHtMh5sPAOlRXGwJVoRvWzZzoaE4uBSrsD4fjG3yso0YhvWzlki3zaKNpwDhmNzeWnb0vnoqh8gKbKOkzMrd2VmY0ZBNGo80tS4QUyeczg/SAgwxtTZ1BKVXAxqxH3JYZMPNKnhTtlp67Mej4bsHUcMxZRkr/YOp7EPz2LNwemj2j2QrZRUe84hT+rn2ImORh8mUgDlZfEuxih9bRsNmOJTchka2BqTIQAt/wW0lbuARmcT1AELw+JjGvBjsHCJm4lO2LL1fMw3oAsJ5EKpLSuZklC62G6g0gwOyGTWyZ90CqjdJwryoAiWYmTmRXHLHjx+c+Gk4urP+ewi/tAXffB6cgsEp0TrHbq1tbhINTE7LOE7hw1nq/C3QRn6FUqL2rJ3aWEc5t1q8pZKu88yPh1g47MFJMAbfN67kalhQuh16jSxaEUKzsUUzz2q+LfU3M1Bn+gaHOdHpzBL5Px9SUnQNZDvTuDZJq9reL+BnZtWgbjh465q/1NCTneOTnDKIq0qL6IVmhM8OLb0Cbh8iA1e6jSV5kM3cGVcamyqtCFgazY6NRa6UbNgesKXXjKPuMv0HWcXdiGAyrCv4kr+uYvODIMNYGynbMDW2XqxleSeaUA7bFhalRvEaLU0cnBnns5HHUU03s5FriAEP4CiNnDawj8FxBlX2BUbTFFUtzioW3GZaUZ9kg9t3ZNcaPdxjbeSawgDlRiPrEODMwBCSJJbQkZznFGC0V3Hctj2annLj4lo4OBu55tLPsg05lJ5Z7jxn5ieUgT39hB8Pfnv+0/9rR/HqwL/i3ReeOPFZkI9N02LaK5W4UCmtCJ7orC/mxx4nIVbH0d7Em8MndqW9WnTZK2HM91rQaZsMO/sQHVNg4mPHFyeXJGqoQkLgmFKEV18YvABHffABl2qr0LoUgKP5MWO/zCIzc1bMIRBzcVwU3rC+EuwvnbEvnOSB7YJeqqEvMmUbyZZcWYNxZ/DmHe0xDizC0Zpd0WGK7MBuiB1kg1y00QSHgkILwwTb0gO4CHOEZHs4U8v9aiPR3oJlzaxIJRvGSWcMaHTW1vrxkMzIFMgOLpct9eQYfWdQFsa0Sx5G1iJbDS5an2zXbPkyWnNa9W8CHspxGjkjruomgKTGKCb1MJcFYHvl6pfL+HwgWxnanDGmrx0+LGwdhuzWDeS4i4Ov4OEyUx+DbBicnLK4WReqg37mXE00+EW2SrAa2C4yzllDo6+BZuFqPUbKQGBMFr9tVl+Y35lRD9Hljm3cWoNex3HPiSo8q7F5XQQFOj40eF9o8nzZuHMuoXbixA9B4PRqscXNPIEJUVl/J7yFUrd8oT7DW7llVqQstGnb0WCnyojzrIYhT3w5AjqgreV0//RD7RdNG3gXfGu2up6gx9kt5FwtNlPX7Dh0f/ODbGIcKaZecDkuWI3gxJeCblcow1UNhE4YB8/jQxUVfJl+Crk9680zII5PALfXrgaaIxeIPvFtiD17XwYE8srd6FIQTqjdEVgzL+PH0CBL3MruIVnmgdtQExJa7rTcbrK9uN0t3Hl/zm76HkDzQpP3u0FXr+tUkmvrABSAhOsMtLX9mJYObi/3K+ZLz7l3lew3ZHtw/Ut3jNjT3we/uH2VVKkjw4qqeVyHrIMtJfEX8isN//nzYMfdc3uO85ip0e3+yWbX5Ncbnfh6vOI2pNHG2GJ0ULrzkM6Z81TA2KEi5t6DMr7n9tIJdTD7ykN1cy8kDTNGTtc58W3wGdZ323tXsmdZWZDDmW3yHvgVTSY/0zS325xdyIFOV7Ku8KTMZ9gSqKdR/g3Q/hdd8dqd+xN3R/8L7MyvW3Pj9naZSkGh3T/x0O2fOHHixImfB9HhcBjwV9tdfGQFoatO/08EXA3gXXwTugNurd4eduPqCebGOovz7//8E58GMQy8256uj7/1Ti/O7Q74f0FsSsXhTSnViD2+nQccg36h7sEfbGDfdhamxG894+/fAVh74ssoV0/NjpmC35ZD/i5ENBfd4AJduuHhGNLSHzu3dcP0+0GdE18Myna0efS6p41bpreQT/nKGG9YzLxWLpMZ7NxmbfMbuCybbly53XT11lfcnlOrTnwPpEKTS+23nK02Ru99jHHT5KHZ1vgH9kvkdtPFmG+4KgJoci5Ql0fW+PxLbttxwYdD2T+8+8QXQSBtAQJ54zZkW/97N/Yk1zCHunUJ3NB0q84JjjuumjyYkeDK+8ZK8K+5fWryb8XO7Vuq2tLklMOdM0HleZdt3bLtQTrv+u2xNLlGZrmrn+aTFpI8uf2teEuTZ5a6qe82yombJt/7bVjj/MxQMz+urKi86a6qbjh4BaGDgv42JO9uZp8mLDJN8SPmVNgvl7ALvbQ5Q0GTnvbPXx9u7ZkBdeLEiRN/I6jbxb+w/078jRCfcmNMx93SKiXWDOd8uu7vgC/qzPM99P+M7vVc1GoIaeXrBhYC28RyBSk9/+BLnvgacCRl5kYueDdTdWJabtx7IPbqS5QZMPB1MPEjZLQmwifHaTMmnytDfR9CLd67MTQvjoCkrigAfPxd3lf+lSbDzsQsbt+x7YHbM7ITHH39e25Ttg3XvjvxTYAkxynbi3ccmJtbN0grzrEOGU/FOrepmK944Hais5e61hYJLi9NvnO7V8b/79984quwuH0r9AJuv+5RdT0XAjzaZXsfQleQ20sRlAtDOWgeHGtVCX/kdmZM8JwM8y1Qbvt9Bgvg067Jw23ELdbKUmaFAVhvdPNxrFyM2zOulyYX09lDh5SV67wHFTs0+cnnb8OuyW/aO5SebAihuf6LIiRvHKX1deX2fBs+mT12c9nw02YjCmgDLF4KnEz/egQDeQ31YVpbsMk5V6ZMvhPR7DlXtiyhb3M6VbBcpHmlZMG742cD6UMff+LEiRMnTpz46YDHtrb+HbAG6CRMTwHuonoNFWYD3y5tJfzgKm4EXFd5sTl9/p8EKe+s/imhtWh6N/gXpk/PXB+nSX4rwQNXmcGNNuDx4zQuPbn9bYjW2kL2wGxPDNRpxZNio6VHxzRMEVj+thhvbTNFr7lDyGs69NWnn3wOlZVjgSu372bjn/gmmD5S8+JTLx7uubPw2IfBJidVbwKeBamjg8fBXbL1sfSHqu/+jtspiAReoLL9ktuuvYoFnvhigEfgDRiabLOtXLTeCTT54rbmbVZNvwuaNM+g7GTvxJXbuHRkTbfWKMJLTR77cFw76xALC/21mFVJfBqFVaUaxFxYw0Aap9BPboeZkx1SphKfg2xX3Mu2jrOxbeCdN25XDec1jeie+FaAnTqKNkdlYFfjNQ0r4GKP0MtoBXuWLmT7v7itKt4nLYmBE+jyRewc+2kjoSEpeNGJbwHNL/yTWKhoHXciCw4JXl0pKcGhslpPORTNhwnlLrqPXS05B0iby+ZxQ9nuOUabXJrhYe/mFMhUPlQF7cTn4iprt1IW2xw80X2eXvK4rnwhnHfvv23tG7dRGJxl2Su8PL79xIkTJ/4CSOMqCc+CeK60ASw/F/uz2xQuEH4DZ7ztC3KE63vOHvazITCHP9qV2ZlH/A60MbSEYFJbjDe7TCMLtvK1RrCE0l2tpcPdwq4ZLFgxo98nPgehGUsbd3Fbq+ZPARRvr3PJyAqIY9QZ5N7qTHKJbiSDg/p2rSUTuLCfVoTh9PO7SDTc3LWlsNmUrkYxHOpbWcnlG0vT25h5xYlPQ3Q9WeOyFdG4g+nJzHrsHF2otlwzFOEKjQw3BsKYq+GCutLcgI80E53EMjWNZQNqiyz4Z6q7y0jHh99xzsN7ClXdYfrB1zMxd2iL/U3LBb81mRN/BNFYtPdgmwW3i0gZdQ4OcXX35n00YylaASvIeNuzxVtMB48rcwx912jX5LbWf4VCpozKTE1TtD41uQ5lSNGURHdrJTskVpd7T3oZNHlmYtMZ5PwcQLB6Yc2HWv3U5IG5491Z7UJZDoLjxPPa5nQ6+EwhrtXYIBDPwCTGK7dn2YBQdJl7hj53wWzdxeCDp5eLO3GR+Fka+JHbChYgYsdtOvn83lHuE/8FyLaKH8MNym2NTIikYQN2yYWw1rBTblPIcJxMFxjKk9s+c1IX+lxcb5XbUNTKbXYQfCvQxs0EbNkZLSOThtm5zctZfmCmMM7JCJPbJz4PPmVXS2IdXc4AiMWVWhPHo9g/l7pPAwAz4uQ2uJ6THgffcGUEv3IxBQYA++17bs/hC8Vdv+3Lmi00pws19PGae0I1UfK8v4Y8DRS5Zpq8GMo+8fugV6s2OKV17u6ucIhX3xe4hR+5SuXcZg1HfY3MEeeWfhIu1etuRvn8cMUtmRy+NhTEdKvxQfpW7kyXANus4Mjf25c4ceLEiR8IaMsfoafOIaGvgJ9j8x9BaO+dVuPT4MLt+JlDvj5dVlEEpvvsHyK+6jVJfS1cw5Vu4PVq+PLEZwDGyWSA07rDsI6uzxa2y42b9InWiO86Lq0znUOdJZ7mefzRiZr/+LYJ2Lhz7vwEnKycZmxsJYAoorpQmxiNeutEwBOfiZjyWkKM3GZiZE5wYfCYGbB08HH2Jw6fFrs1wM/pehye0OXC2GVaXk6kJ+NyboyCMhJ1k8kX3Dapwo1WMb/nNvh7F5A+uf3JAEfBYmGelYDbEfuaZoPHzwxbPHmI22KGFB0sksJceOECcUyd5sRM1c4anYxupVOyXjWz7658TBoQmxMweSu8D74wdu65zQgHlHeaFROg/eGBw81dftCJP4Ski+NIXnI1BJXtBtnMjA63NcrnVHL1Wq0o39zQGAS7W6/cLnnGqyCJcVazjRrBEJu5YrbCJ3yozovATki5Ru+hzdF6HrhNBN8KQ9/kNuPgZ8L1ZyGkqW3Z0c5+m3zzBWIdVer1zARXkcQ2tDS5o13z5PaUbc28XMtVxTU8catb9KDJ5wIFKWUWTSK31/Fg1+KC0B+4+tTknwwOOSRjLYcZmAAbjOPSvZC9ACHu1dqay7K2INsq5Q2yb1vlso8CxR09iydYWy4q28q6qMNVMMX4TwHz4JqPgkbA3kKZWsHtwW9gjfW4Cvq+4etoEoF3l8I6OeZhfPrEH0B8Q29KBauFqvDCCsPKjcCCtHdlaHBet1mots7jTECAdOM9YDpEPszY4qpyi3+8npC7oONdQSxeF8lP/vATfWTnPi9gDsP8+RmBgBMnTpz4NKgldeJ/grDX938/9oG/dyCWmV1ZzOyk/T6mK7HehUm95bJeq6g8V3+e7zlt6M/G73C7aPXH98AMx0HefdgYntNlTmLjIhI7t2ltM1WsaN4eXLPUdPz39Iw/C964rIvdz+mk8JXgCc35aa3k7FbSFnZjrYZB6HUcLm3pl+5sLPSgQqOM2mRNqroAEAuB3iRfP/wKKTnaWTKacx93Zl4rzupKvzNN6MTnYcUrNdWVDIGX2uiiQMvC/wX7bg6tMKsS/g6cVwMVrhFOnPRM3AVTZn0IMwZaClN1W/D1tj4/PnzKqR4QtAhZC0jN9y2E2jMU+XTJOLGdXrImg5/4c0B1Ds79TOPS9OnjZYWTQxmZfSg07mQZA5bcKhcwhMedh4iiQUxuo8VU2epg2/BpFheYQ08KO3qtdfXIURnMOrAvuI2P8c1WN+sMz6RQuMkntz8FYC54FjgDdGlyPm592hBeijBnhq5r55wHSZDeOWeUoex7boNrk9srnun3as6AGXMAmvBljJxz7xcOYtxxO+yhEvTlYPcMlJ/4NICnJQr7XF2aTzxDT+Jzb2Bitj54s89R2mW7OXS4AcYzevDCHgBXW+xnTpx4kG1m5t64feUpNPS0wjlExts6HaPwGlQtMON8dBo6L9zDrc6Flj8LMLmoysnjltAT24pdLoIMSwk2GTZ3PSpRCzqjhVhWF9D1WGHiQRvjNVVTWSbWJsazVxNh3X++gcCHXz+n7uPT3rA0AT6Ns+VYSkCa3n5WMdgsbsMzqezjGydOnDhx4sSJE383tu0fcuU1+GAsp2wAAAAASUVORK5CYII=&quot;&gt;&lt;p style=&quot;text-indent:24.0pt;mso-char-indent-count:2.0&quot; class=&quot;MsoNormal&quot;&gt;其中表达式&lt;span lang=&quot;PL&quot;&gt;A&lt;/span&gt;&lt;span style=&quot;font-family:SimSun;&lt;br/&gt;mso-ascii-font-family:&amp;quot;Times New Roman&amp;quot;;mso-hansi-font-family:&amp;quot;Times New Roman&amp;quot;;&lt;br/&gt;mso-ansi-language:PL&quot;&gt;大部分条件下为&lt;/span&gt;&lt;span lang=&quot;PL&quot;&gt;FASLE&lt;/span&gt;&lt;span style=&quot;font-family:SimSun;mso-ascii-font-family:&amp;quot;Times New Roman&amp;quot;;&lt;br/&gt;mso-hansi-font-family:&amp;quot;Times New Roman&amp;quot;;mso-ansi-language:PL&quot;&gt;。&lt;/span&gt;&lt;span lang=&quot;PL&quot;&gt;&lt;/span&gt;&lt;/p&gt;&lt;p style=&quot;margin-left:45.0pt;text-indent:-21.0pt;mso-list:l0 level1 lfo1;&lt;br/&gt;tab-stops:list 45.0pt&quot; class=&quot;MsoNormal&quot;&gt;l&lt;span style=&quot;font-family:&lt;br/&gt;Wingdings;mso-fareast-font-family:Wingdings;mso-bidi-font-family:Wingdings;&lt;br/&gt;mso-ansi-language:PL&quot; lang=&quot;PL&quot;&gt;&lt;/span&gt;&lt;span style=&quot;font-family:SimSun;mso-ascii-font-family:&lt;br/&gt;&amp;quot;Times New Roman&amp;quot;;mso-hansi-font-family:&amp;quot;Times New Roman&amp;quot;;mso-ansi-language:&lt;br/&gt;PL&quot;&gt;“&lt;/span&gt;&lt;span lang=&quot;PL&quot;&gt;OR&lt;/span&gt;&lt;span style=&quot;font-family:SimSun;mso-ascii-font-family:&amp;quot;Times New Roman&amp;quot;;mso-hansi-font-family:&lt;br/&gt;&amp;quot;Times New Roman&amp;quot;;mso-ansi-language:PL&quot;&gt;”&lt;/span&gt; &lt;span style=&quot;font-family:SimSun;mso-ascii-font-family:&amp;quot;Times New Roman&amp;quot;;&lt;br/&gt;mso-hansi-font-family:&amp;quot;Times New Roman&amp;quot;;mso-ansi-language:PL&quot;&gt;操作&lt;/span&gt;&lt;span lang=&quot;PL&quot;&gt;A || B || C&lt;/span&gt;&lt;span style=&quot;font-family:&lt;br/&gt;SimSun;mso-ascii-font-family:&amp;quot;Times New Roman&amp;quot;;mso-hansi-font-family:&amp;quot;Times New Roman&amp;quot;;&lt;br/&gt;mso-ansi-language:PL&quot;&gt;对应的&lt;/span&gt;&lt;span lang=&quot;PL&quot;&gt;C&lt;/span&gt;&lt;span style=&quot;font-family:SimSun;mso-ascii-font-family:&amp;quot;Times New Roman&amp;quot;;mso-hansi-font-family:&lt;br/&gt;&amp;quot;Times New Roman&amp;quot;;mso-ansi-language:PL&quot;&gt;代码如下：&lt;/span&gt;&lt;span lang=&quot;PL&quot;&gt;&lt;/span&gt;&lt;/p&gt;&lt;p style=&quot;margin-left:45.0pt;text-indent:-21.0pt;mso-list:l0 level1 lfo1;&lt;br/&gt;tab-stops:list 45.0pt&quot; class=&quot;MsoNormal&quot;&gt;&lt;img alt=&quot;&quot; src=&quot;data:image/png;base64,iVBORw0KGgoAAAANSUhEUgAAAOoAAACgCAMAAAFCjjDgAAAAAXNSR0IArs4c6QAAAARnQU1BAACxjwv8YQUAAAL6UExURf////b29uTk5Pn5+fz8/Ofn58DAwKWlpbGxsebm5u/v7/r6+v39/fT09Orq6uvr6+jo6OXl5enp6fX19fv7+/7+/vf39/Hx8fPz8/Ly8tjY2IaGhoqKiuPj45WVlT4+PiAgIE1NTcbGxuLi4qOjo6GhodPT08/Pz6amppKSkpSUlJOTk5CQkLi4uPj4+KioqJubm7a2tt/f387OzsTExOzs7NXV1bS0tL+/v7m5uZaWlo+Pj5GRkcHBwb6+vkJCQkhISNHR0cLCwk5OTi0tLVhYWJiYmN7e3q2trT09PTMzM42Njbe3t3h4eFxcXFpaWlNTU0BAQDg4OEpKSl5eXldXV8XFxVVVVTo6OlBQUF9fX11dXUVFRaenp5+fn4uLi9vb22xsbIKCgsrKynJycmFhYVZWVtDQ0H5+fjAwMGBgYNbW1tnZ2Xx8fB4eHgAAAN3d3czMzDIyMhUVFY6OjoyMjIeHh7Ozs7KysisrKycnJ2ZmZnl5eUdHRxkZGUNDQykpKW1tbdLS0sjIyLy8vExMTBgYGIiIiCYmJqqqqh0dHbq6uioqKq6uri8vL0tLS+3t7RsbG25ubpmZmWJiYru7uy4uLr29vREREeDg4Dc3N9TU1GpqajQ0NFlZWRcXF2hoaImJiXFxcWVlZcnJyTk5OcPDwzs7OwoKCjY2NmlpaT8/P1FRUbW1tdfX1+7u7s3NzfDw8HR0dMfHx3BwcEFBQZeXl1JSUkZGRlRUVLCwsKysrDExMW9vb6SkpHNzc319fXd3d2dnZ0RERDU1NTw8PNra2hQUFCMjIxAQEGRkZA8PD6mpqaKioklJSU9PT+Hh4Q4ODhwcHFtbWyIiIgwMDIGBgZ2dna+vrxISEpycnGNjY4WFhaCgoCQkJCEhIXp6equrq3V1dXZ2dtzc3Ht7e39/fwgICCgoKBoaGoODgywsLGtrayUlJYCAgISEhJ6engsLCxMTEx8fHxYWFg0NDZqamsvLywQEBAYGBgcHBwEBAQMDAwAAAGh5fBwAAAD+dFJOU/////////////////////////////////////////////////////////////////////////////////////////////////////////////////////////////////////////////////////////////////////////////////////////////////////////////////////////////////////////////////////////////////////////////////////////////////////////////////////////////////////////////////8A2NkMcQAAAAlwSFlzAAAXEQAAFxEByibzPwAAHNtJREFUeF7tndtxJCuzhdu+cgAzBM8YQPBMEFFeYEMFLmDQ+VZC30a3nmnt0f7P1tKoRdeNSkgyVyZUzelT7Kd6yvzG0ymd3Np4BZvPf5vreX37fbS6hSNVSvp9dZ12yvlc1eDnCn8q9rcU/Z1lQ6un5tk90skHvu9s6nOXoZ2aNuvXwEGX8ptwVeLfXsKA2LSMoNOblR4A1Z+2bRa3cdey3NcI3PkWTvHw3PXWzrL/Hqgj13ysb6/QjnIRR7fzCLZTP05b3NopIjR9VU631+9tiycfy3ZyyFa3I2/bo0qBpPS8jg7H667wpzxb61Rdeq0gjyLWrfnuTnWMtM9uu4EfebTYT6Hn1Ia3bWqX5lYXl1NhOFy1jHGR9nbQfdKe3vaoXjujmRh+CWOXM1V8A/OSfetl9F97wrveUALu2aX9nfPv0XSJs85QbjaqFmrz0ZtGRU9n2SZ9/CZy3FvLiDhogtlUN/CnHho6wD1398g9j+b80ZrLCQWLp5Dubope8Y6Oq9IBFK4cOuiKoO1LP4SDLnau0arhiK+t1h1oBK4vba76Zw1XkjYEZw3513Fzwz6jhwPt20/5s2Zs3mVsVDsaw1qNUbGUO+eO2ctfgFCxxOFUpFOYjnhrirs0rdB47aYjbhC0vxf9VZM73WIIs8k37avq87fP/XK03mLZc0vNuWg2B1FkyHfdycdoPpQttjjaFMLOxSpiuw61zAXX8u8OMCwz7ZxpSWsrM7G9+9jpSN9Oo0SuHfGYdvQ9DvY5TBLt3JCs9ZvK0efEz+EwKp8Mi3fRjiMU/BJqcEro2oeQTr7c6iRt1XULO/LMQz4C4jbkpSVnPfapNrhT6Lt7uKEAO23wQl2yoFT7uhP8wX05546oGz0i5pCjseGoZzjtZbZvP30m5V9Er1KN6/1APwoSIGU8dWnF++gdVdpo9VCDr7ImBUllSPF485D3YE48oDGc56san1NDt1PLXV+8gk7lxJvGT9RaTgNTdeSPz/234SpE2L0PtdKgJ0pz23vY61Za2k/Hi4cdicC2WoKVPmk7qV4+ZazLOFlTmSX3Bxp/y4HfhDtFmHLoaeNU9MLMMwYbkzU+PfkxSAQhcUc+3ahQKQECxb1mimvbLej9VppHM0JUeHHbChXT4Nj2ttPa2tjRcgiMKVZ2iOJDa0Gan0/7KHbqYtZ32NRp5qBOm8aQbFEIdKPqkauc6vzmSKjcDJ3PPrNGVtsZYnl81+5PRtHX4VpR37u4oamExvdH6AdMUgdvmc+lTUXO5VOFgPe7NhXRdJZTQzISiRf8GJhejFPM0mE1HOrfTodHL8ebyvEHuDaH7NRvwE9/z7+A54YN3NwQ5NV0KSPBa7jmaHmMIL+cOoMg2sgaliGXEVun30ZHCyO0nTji4K6XInJQhFCYavJdypjerJUQI2I3MwbVgmUc+RUMQjUFfg5Os7b907h2foILQFt0V0X05SPkIxweKlgLzcB3o3/JtMn2fwBC5dwqxpQmnIrYtt0s0d4/GX6Mb9jr1jjVuDQ63OgH+pxIZh7yHtitXELjODtUNbORP+0z6/8o7iS/OpoETUpeHpTA8HiDM+VUBzRGfh1bbwp47ITdsrKo6aa24dpvKQTnDU+oDr3Rpy/jFNWstErwjSBeJzX69XXrZE7lDPmz7cTnOJKdyg2roYn7jjYO+NVb9T4DaqhrkL/dZ/TR7KbrXVNo0MgnOgq9WSMt7te+uYHyIVS4VUJY6K2kRh17vrmL38fmi7PT4aHTzOZ4EK1U+zREdfLWo3P+Uqvb+htc92FsfqbaCN2dWbNTcdFBQ/hc43rWSh1sLmqYDQ19okqQWjCRLIB6O9S1rYwFI+ntoG7TwyN+0Qj8d0PE4xUw9A57ePCX5s/8NvkSAoKPQ4HPUGAFaJlvw4nI1dpSyYXGXk2tvveyWJFgUkHSjjV5thuaEp4ulb2hS+g7Vo3LKmOw2JxqbSNGSJ6lH63WI0kl/hyNmDqhw1HKPOppOyRYh5SuWtlGmeZE+yt/5XOflvXL8VZ3P6UCj0D9c4sWWzaLlbdSNguef0FJI6bQRiq4HrU4bYnZPEpapuVjcFH0ARoak2t+m7m9NoKzADX3EKIRrtg7x+E7+TTIIOpuPb15qRVj/UgTeQwh1h2mEfHBcXM4Pq6GdTY7aZ7Bsr5HjAzDwqeZsmutgdpkO7mGTOVjqCNCDwcBfhy+ba6rnlP3M6Gfh4ublV5Bllg1QcnQbp1NrR2b8I/rw78ARHQBTr7COutfCmyD0dgBfwiv2aJKpLcVMT4uDKFg47k3B7ut0dG4r7OIaOsRGyqEPdqnRfSEca0uHjgtonMDTTxbxH1sz7h/LohF1MWa9BfNjVC5O4s4a50FkY5A+XmLWOkfj8riwrhsoa0ZRRXSvQaTkl5WVt4AVqoRVxL4N6m1NcsNsBJhmADNDfmtV6hDCPoDd2tyNMREQRvNvHyCpnGNglQGeGtYPHV9i34QdMsi6ptpAyNA48I+hVmT9mPYZMexY2e1+gxQe/g/Z+UNgxd7kjG/WsTjapdmrfNTMEdaRzq4T2sruGbdik37fYroWkEX2xFaz3V4JSSvtZ569OHtKehZK9qrSb3ofEBxw+bBOuAHT+BN5l/yfhQcPaQRk3WxTUcpD3X1e8DY1TBq6nAGeVWC0z0S89Zz7muxtaYuvtjhiqWeu/8Msohdt97EEa1WdBePbooFZP1lHT36pVo1oJ63/sR0DO9+iNgw0lyyOTfs8BqmSng0TReLEkRns0Obg348JewXQwHJb6CdbYVab4XszSYrLns+gy/egpNqKXMFRSDIdVBuG1ZC/ADXAiWw2UeY0rrJLpZmcbTFuEQWn6WyFkQL8kArutzRgYnBXaOt4XR073fP1dAHrsxgcAnjI0EKsQz1K9pZ0bsY7nbg6PHpUt7PAO1snlq5Wic6W60GxZzlWWukVtPWWeuUtTg851i1ir2y2cbLI/CE4vChZi18bkP1DWU+IUWVIXdOl1snzq60YegZnVUHejuaT47W3h+c0WA6aiqV3oKyW+K2Njl6PWhu/FPg/ZVGEt6M3U7VOawQphWjxGiSucHy6KuGzR+CO5b1BFlrht5Aq4ODcm/NM6h0cIGqYOOfEDa4/DJX6rgw/ReqK0WuNUspgVgtIrOHMatjoRm2/uTPwelT1gaTsZHnE0wK3sbnbHnLddQ9OnWBahUt23t/InjjktMXEZsrgXGW1T5vZd0qVGzWarIu7fozXGolcHW2bMkrL9WaPm9kVfjssU8KKjBAX9TCsERMmkXMv8JkNWLMkWWrmdusI+dzv/8BfLG85CloGLzt8JSz1HFULS3Twj4tP4j3K0Z+8P8Ab42aokxtbBXlx72bijACg8bCU3z4gjcXXTVfNpxxgo5obQujTEOs8PUhIvUuaiEESzDRtKeQNW9a8xFKOee9LI4Uz4CGWZoYFrWCtCeQ9gwLx3LXvTJ+/eaPQZlIYwoza+21wphnrci6PRlwyIj4l1TovCFbRSgAt5LlksECs9aBwYbQXGpN6cla1V3YJJG7VSusURPOt7XSwsfqV6jeF7QwVyCAyplaEbHu7a1aOUjyDzoeV/F8rVqBELaBh6MN3Y6PSHBVfTVfibFcByl36rehfEp+ND/yH8QzHPAx3KyANuD3inVWVow8t92hplJSwRyVwmGWxQsBd0gMMvv4EawI6YJwLDa1xXK8WjUNaoobqpQ6kU6a6SaGib7a4olP0TKRpEZiUZxTdeuyqQxMOXvRJMu2vYI9KGAR2H4ZnL/e/PvoMXWfMDdaRnH0YnXkHnZjiIozRbwZloBhwucUXURKKX/OuZoE+NZD2lCH972W2HY8gz6KhjpWdtrWrVOPam1Kr+vzvJB91rqPIfN3lhW++pC4MpsRWalolLDHyMlWq9jbbGFbQODZQzfo80ZWbJOy7WZ0JassxCMQxfTwb1rGjyYBJctdrdZbrQaT9ZJ2mLVSja4g1ePQx/vV9dhbOep20DhlHGZTueSslRZzky//iku/itPmEfFuOBiYwy+D8B14qlHwbTkUPzmuPRgjKB1shVeweN10R3SmWYBuTfHmPf7gC4BlUUaaVrbGXh2grc+xtSveWsdceh+QmzJcx/XbFA/KlsezzNTWZOrOA9YEqTw/AWt0jrIseS8GU88cEd706BB+F0jj8xahS3vMUXF22lxlg8wZuPAmhvCl1oeH8HtIGL9RG5H8ZGswU0ececlsXDgi3y+17t1WA/855JleotLC27lWsTXM0vRKs1bnKx5k1iqO+FSKCFCr2cwmWful1tccUQuDVCtq9DXMFIXsGdrpR4nDx1XrbQvTrxL06Fl8QNy/zJv6QwSdjcnm+tR2hKpMtKYfjQDQBkZkdJBYT7ZcsdeU5FMj5/8HXj3phimzFZv/KH61INCYPteH5W0Yg/kVxBNjHKdonzaTckJ3HF8fW6mh4STtnMNqjq0WFm9SbqlMB/8rlN9Xpr5tywJx2Nuzl28g2/KWeDqcCNBa7VVTfjEWbiPR2IGte1ifBpEG1aqw9lLrg2MEWui3gAUZjc7dSrO1NuKIdvEVhYMEWzxkit3qDZv+6ykn7J8l5VSre4yFl5GgSsi69dT8ng57cOnC1q61vpLVat1i0mLoS61HnjT+E5TOZSxHW4/ud00VsfXKEdVRplclHnBPrchUbdpqtXIUx3C82cDHW7h6Bx+uqeEVt2TLIayFrdY6qpbNvwXTJvFHBG0cJtqslSoPZXCrtKjaMsJ6ahBMnRSSlksLxBi/jKozzLrqaCW0dBjFpIjkkSb+wf8M6oFPK3hAG7J6NFbhhL4+Fkh/DhGFXxHKMUqGXBXCnStv2rIlEf4cNRNJJ1T92A9lL4uylzWX8zoGUaj77OVXMNO0l+Zi6JVRDFuz7GWpe8rTopx5U2MUXmt1Ty5cMHOwlxLdlZkekyPOJpy17n1wF5daR39vwD8IrHXYc8nhWusvzFSGAhOFsbSkAcxJDf4cdEEcDBHt0DxX2K1WTPGvzNTCd8U6lr18khBLM7Q4I+jxSzxxt+wlpnNlL+1BPx2kBVdEIrLUHG9//xx2zzNEtNgKcsWW+c9g+/Vh4ftc6KTw8rz/P4xfs5efAEJhjEJBuLU4sDyKpUMetkTv6reejX6NHS8qpdlRH28mwhYCF7YYu3oAek4GdW+2AibMvCz0yFu5jgKJIyL3SnP5lbVdZjglarQFgjZbqrnLZaU+xRwBx2kkFDxtyexMhnqX7dhCIiqX7WsEw3nrenoTLA7nfNSUgr5Aim3bJs3+HGEPAY54eJtn3mvAhqpWbjsTirc+rVCDFUmeaQ/2GGl575SuXeu4fBzaRwuvGeoPkWCmMdDCZRs5wEwt/iPsbS8HZeqbsp5tn5H7QWtz6lbS3qasQoW6jfCQrJmTcF96KCsMLYiws6hJtg9btmlx8LXWST1nC29HKSPPWs2hccaj/QqX7z4duYtOHxshNhuVJE70a4ZmN2zanC/Cuk5ZrdY5yd/13EYsjcuIju+OFtIhn8DWEzHofNXoCzPstkFoZUJxr4VGyprxdabJbEROg4czqBWmgoPXVn2ZruAH/1FACdCVtGmt9QVe8zyPImRxYSV5xH19pszPSgiFy+KhtbSNA3Xsc2moPwP03Gu+4FY0OOfLm1mQNxG49bjtjj+M5zxGRJij72ZT0rAV+DICkULte7y0yt8GLs5XtxPrz9YXjq1EIuj17RGEOM2WbOwib/grroCJm9c5i7rI83egbpvHTfV0zqMjfNf7nG4eLvB68EkouIqix0HB3UQroq7DEVWPQbWMD+MrvWqitouoeoT1Icf05ZCo9wpcLZcXuOW1Qcw22I/u0KYl+bkjucFdRd01jzn0WhhwFvXcq+5l6/xcr/0XUTdGZRm6jwl/7LtzdrNnYcKh2+ubXjdA92x069bXGJy471X++DQVOW3zyi39CxRYadhbUekHTbT60BfpW6B8+arC7b67Xl1jNQ6dzg7+tOY7TMdErZz5PRocNGee+1Iz1NOtWz3V+GhK0Pp9mSXUf56flaizPd1FwgK7VsUqaIbcxd+yel8Da+CbVr4t/kbMeTmNwrm0Tm8KXS57FcpqsP/GtX/wg/8taBAsXL/NXfp6X1i7rwf8C9Dyg8u7YOTbNl5exrY5rSfdd0pjDLgJZi7u09a3w17ZmXYdB9x3rZ3W20SwR6rdh7U0ZuyJAN7iTttNCNpESPhs85gbhLESDB7vZ4WMX5eoi8Yhqgrs/eb+hDLQ0tCuQnu7DvkI8WWnl8qmHEs7+tHaMUbvOYtpOkKr5a4m6lhO7yoqx96JagX2ctx3StvSMF507KLEPu7crugDHFQkrB0boka9fgzPbo/XGpe54lbULR6HQ4G1Ab5+J2rZhzM/PY/+BkgW7jz03R3xiLGn1rT8h1tTr3qJuu66dlsHFLY7zngrqoO91bIoySsFdtVctW38DiCqggbvdmOXMpBwQ+tVzUIgpXp1dud8g/UHok4FRvU5Hyul1L5ayBKK7P0+KQ2olxFEOqEfBOrimAoVgwWMJY5dvWo2lNjKRB3jTtTzO7S0fOq2gEJwxRQVLPI1vRBqH8LKG/91YH0X9fO1aKJJ24LSMC1o4sm44tk0z72WQrzg8rXN91mqtDY1rqjXDxhazQt3p//gPwj581X8CGjg/7yuXIzbO2ilw2CqkoOrSTCeeseMwyQ8JHzTa2u7GIOLWBGjF45w1q7n9X4IO2oWlMSau++4xZfAfyIqFoJbKjdviy9bzx67kd5eUfYaXAGG24v+yjNGxa/hsFcS45iWTJPmar2qecwvY/Itd6h0p5HpVTwY7mHAQFSrT9vY9Q6PiZa1HP/lhb3L/J2zK5aLm8CDiv1apHFbvmJln9g9CTtVdmUXvZuvQpGoKqTtLn31PHw3J49/DnLHp9atHtn1MuTw/HEm1I2DILVqj4W8Dc1K9Zc5PSjo6QrLnnKqki36ovTbFbkvUdGiXpQv52AOuIrqJruFQ8tjflXEAlfVLGXvu15irieh6OTNHbhnH1/05j63vawYo9EfJuql7rz1pLmwMm9WmJPZgHOUajmXr7j2amLUI6szYvVGr/Ykf3lJUD8JLU1XPVKyqcDA52NsFTJD496k9y6izq+grNTnCYO1+jUcslMyO+o2PYIJlggT9Or8flHgmUGF/U92OxmkFPiuiZ4GFbhS6+ESBgOzFI4Il7HcfO0j5pr1JsZ5KFaoaYLi2quaFaiVyOxeRz8EDXYW9WWNVWdCqj6uRvhnvBkibyoDD7KjnkcLKcaoeYxWDz2NXghEDlva1TK79PqYy5EIVI9rH4XJPo/0a2D9EUJZvqplLekWwhyQrSbVvSbxaiJ2E+SXfvCDH/w1iEys4sfAZhDi2m+ZxoNiStNmXPKODGwVgu3k5zvm4d9Dc4/OAQW86bGPVDLmjoi8y70m7DOyYa2n2T4nXPbNvK8O/R60DDk4YHY0PuGAGMmx7/2oZsXVN7VhgXOORaF7OVy8pwqvEy6a1OPzdcbwu2RcEAtzeCx85RG82JRYZKoByoJISqN5XDqO1NdOx9Tsbvw1uEujmXuNxolfi9qLOvWh+PMfQTvErCB7L0otpf7iWnOWMRwzY9gvuaVgfPmjNJpeH+j4VFO8To5ujOMjLWf8DSBUsz7oI4Va+ecJJJaos1eTkqMS9dPk6HzED9Gkqqt9rKDT4O3frcAzOar3jcF1fEmY0j5EtmDXWhRC0HBOjr7Tq5eM4Xqasc6Z+Uy8pWQcm3UAourhTz0Eakf9fbRkr+3llqLWTlieQTMWtXHHRE56jpKeNxlnmsHf/89ll9l3BvrsRtrHLhmSRYaLLupBswkjzj/4wX8BDX++im+i2dpIX+IchhNK1pfHvZq9KnACnmdvEVRxnu7Pl5lTA3Nv1v6vHoafZQxb1crysrtrzXiC7uCqW39wcQ6R/+H2XdOI2NEMz9BE3WbW1KcX+VxQcMNYpm3v7PzCl4k1CHW1VpwUrNXM97mLLrvha2ps73Z3aeUAg7GiTn34drzTYkWATdW0HFuOAVW65qGzvsoLfSmFV27Upbjpf+qwjOGhpelOppsb2ChesqNKuPi8vWwzRQ2mV78HzHYCcRSjCJcTDB4HOdsFH2lLBkqXy5xpPNtuJBFRi61tnAc/i5bH0PXKBpUxUfu+0iAI3bUED9lnXefk6HRzABL72pm183CUW9T/hqYRd3e3F1HFJLRSbezmQ1+LigKDc1rmSSyGScOnMBUY47QRgxSpap+7Fr+cGcNzWlFA487ddSErmqyI+qEVuFbUN3c3km9FtadWFLxwQCtnBZ4F0SiuMTc9j1YXHwtokqRYq1L6nmWlVNY7CwzqVZml66gM8D4TAkJqx1qZfuTHnmzywcrnK0zcijonQBjzRhHt6Rm+zpw35PhLxyrUcigBD1WdydE4Ntc3MxNotXYthqbv3NmdmW6QPWzwZkz3UdyIen4dgAYtfyqVc7WVE6/bC1+1OPeOMj6F8wz3Sm7TFef71uT3KoK5/5wBP0OLI1fxQVyT6JdrXUr22NiCLJb9+6XGH/zgXw1NuprqahbW1HgVte+q/bZl7QT/Ii3X++geux1zV1hHy7/pYQG5rN4PmRB/9EnUV7SLvzJ3hvf9NlmpeDpFesH+rOX784bs077NTRf7JKjn8ujKLkg2vIGgKXr5pUtuaSZHLQuhU2zrN0D/Q4fDSRAiaAVrrC24/WVzesWBJDuIDxpeOfaUtdyhj+vsvOF1cjQbe/xXJkeHSJYana+aSVUaTVPxopnn5ZT0nNYhwrlaeX85pV5Hhq+3tvhV1EKYpHTL2fn/fTCSxBm9e9nhIWPsh79kDNm9kqMfptGuojpcdyVQ1IZXos402vfpr7ptinqe9GfTZotkLXhoiv7Ww2ifrxydCmzLNbjw4uCwR52GqN+twCs5SnTiSmbg5lNze8wYJz6LJbA/6dVzcvQsKv2pAn+0RoIA07hoIiYphu+ywC2cqw6FqMnKimTp10r4GvRS/DWXth6WbaXcauF8RSpQ4sAKbJrU2ecjcgnbdgoprbm432DhP/h/iYfnev9h/AVrejEAj+O6wvlTVDlHLfnC7fBVb5mfo5khPMegYC+fh+bNXVp9afiinAuYNWmJnRUuFYPb8sTcsk6JK/l3j7Xpbk/acY9Gy20zMf3LjMtp4WsGI206KsynX/FGUc/h6KR1wFPQtLZSVfBIEzVoCZkyTXRZUfHydipboxAPvTJS/0Mr5pO71HLLGiXv7J0SU4qaBk8lzlmphXRNvwEcay1zvaRmFc+ShOuCRv3G+0donwTOTQRVbtDSaH6D0GH/5e03vV2O5p/0RNxtP6pmwrcUvJ7ObaFvNFIxWqDZwXY6XgbNpGRfhuHQk/Nc6NPucj0vWfBJT6Mc5ldvRdVFCGlWE9GrXSsqv8aPcPtDi77igKDaWMU34wepCn6+KWEICZg1zdwSVOBFyfmjw1N8lCOfjwlxy/TI+YESax9/8x8yJkvpr1gLLgTtneThTlQu30LWqxakwMQDJdvrtNbOZ4B4vdoCT0LhNVYrqsetwLyOufRzmURlDE3U/bDN3kP8NFZn2tYoPKIa2dM7BGmtO1GvCqzUnZ5NRiKucavAizdohSVt8cUK3LlxjTMLqo5lDiudDL1UlzF2Lwpsop5K12PkLUFd6VWKFaUnntSzM2uF9kXUbZpSkK5JVU2Xz/yYXj9BazN45ry3rajk2nr2hj8cJy5vu74AiigJk3Tlwv0p3TnG2WB0Rs7F0Les6SkVxGE1SM2O0I3og54cknVKk9DO/2jcO8IOnQG4+CrOaS5DOPA4mT42EHli+rTofObI5zOEhtXaP/jBfwun0/8BIn4M+cR31mgAAAAASUVORK5CYII=&quot;&gt;&lt;span style=&quot;font-family:SimSun;mso-ascii-font-family:&amp;quot;Times New Roman&amp;quot;;mso-hansi-font-family:&lt;br/&gt;&amp;quot;Times New Roman&amp;quot;;mso-ansi-language:PL&quot;&gt;&lt;br&gt;&lt;/span&gt;&lt;/p&gt;&lt;p style=&quot;margin-left:45.0pt;text-indent:-21.0pt;mso-list:l0 level1 lfo1;&lt;br/&gt;tab-stops:list 45.0pt&quot; class=&quot;MsoNormal&quot;&gt;&lt;br&gt;&lt;/p&gt;&lt;p style=&quot;margin-left:45.0pt;text-indent:-21.0pt;mso-list:l0 level1 lfo1;&lt;br/&gt;tab-stops:list 45.0pt&quot; class=&quot;MsoNormal&quot;&gt;其中表达式&lt;span style=&quot;font-size:12.0pt;&lt;br/&gt;font-family:&amp;quot;Times New Roman&amp;quot;,serif;mso-fareast-font-family:SimSun;mso-ansi-language:&lt;br/&gt;PL;mso-fareast-language:ZH-CN;mso-bidi-language:AR-SA&quot; lang=&quot;PL&quot;&gt;A&lt;/span&gt;&lt;span style=&quot;font-size:12.0pt;font-family:SimSun;mso-ascii-font-family:&amp;quot;Times New Roman&amp;quot;;&lt;br/&gt;mso-hansi-font-family:&amp;quot;Times New Roman&amp;quot;;mso-bidi-font-family:&amp;quot;Times New Roman&amp;quot;;&lt;br/&gt;mso-ansi-language:PL;mso-fareast-language:ZH-CN;mso-bidi-language:AR-SA&quot;&gt;大部分条件下为&lt;/span&gt;&lt;span style=&quot;font-size:12.0pt;font-family:&amp;quot;Times New Roman&amp;quot;,serif;mso-fareast-font-family:&lt;br/&gt;SimSun;mso-ansi-language:PL;mso-fareast-language:ZH-CN;mso-bidi-language:AR-SA&quot; lang=&quot;PL&quot;&gt;true&lt;/span&gt;&lt;span style=&quot;font-size:12.0pt;font-family:SimSun;mso-ascii-font-family:&amp;quot;Times New Roman&amp;quot;;&lt;br/&gt;mso-hansi-font-family:&amp;quot;Times New Roman&amp;quot;;mso-bidi-font-family:&amp;quot;Times New Roman&amp;quot;;&lt;br/&gt;mso-ansi-language:PL;mso-fareast-language:ZH-CN;mso-bidi-language:AR-SA&quot;&gt;；&lt;/span&gt;&lt;span style=&quot;font-family:SimSun;mso-ascii-font-family:&amp;quot;Times New Roman&amp;quot;;mso-hansi-font-family:&lt;br/&gt;&amp;quot;Times New Roman&amp;quot;;mso-ansi-language:PL&quot;&gt;&lt;br&gt;&lt;/span&gt;&lt;/p&gt;&lt;p style=&quot;margin-left: 45pt; text-indent: -21pt; font-size: 11px;&quot; class=&quot;MsoNormal&quot;&gt;&lt;font style=&quot;font-size: 11px;&quot;&gt;l&lt;span style=&quot;font-family: Wingdings; font-size: 11px;&quot; lang=&quot;PL&quot;&gt;&lt;/span&gt;&lt;span style=&quot;font-family: SimSun; font-size: 11px;&quot;&gt;嵌套&lt;/span&gt;&lt;span style=&quot;font-size: 11px;&quot; lang=&quot;PL&quot;&gt;if&lt;/span&gt;&lt;span style=&quot;font-family: SimSun; font-size: 11px;&quot;&gt;表达式&lt;/span&gt;&lt;span style=&quot;font-size: 11px;&quot; lang=&quot;PL&quot;&gt;&lt;/span&gt;&lt;/font&gt;&lt;/p&gt;&lt;p style=&quot;margin-left: 48pt; text-align: justify; text-indent: 24pt; font-size: 11px;&quot; class=&quot;MsoNormal&quot;&gt;&lt;font style=&quot;font-size: 11px;&quot;&gt;&lt;span style=&quot;font-size: 11px;&quot; lang=&quot;PL&quot;&gt;if &lt;/span&gt;&lt;span style=&quot;font-family: SimSun; font-size: 11px;&quot;&gt;（表达式&lt;/span&gt;&lt;span style=&quot;font-size: 11px;&quot; lang=&quot;PL&quot;&gt;A&lt;/span&gt;&lt;span style=&quot;font-family: SimSun; font-size: 11px;&quot;&gt;）&lt;/span&gt;&lt;span style=&quot;font-size: 11px;&quot; lang=&quot;PL&quot;&gt;&lt;/span&gt;&lt;/font&gt;&lt;/p&gt;&lt;p style=&quot;margin-left: 84pt; text-align: justify; text-indent: 24pt; font-size: 11px;&quot; class=&quot;MsoNormal&quot;&gt;&lt;font style=&quot;font-size: 11px;&quot;&gt;&lt;span style=&quot;font-size: 11px;&quot; lang=&quot;PL&quot;&gt;if (&lt;/span&gt;&lt;span style=&quot;font-family: SimSun; font-size: 11px;&quot;&gt;表达式&lt;/span&gt;&lt;span style=&quot;font-size: 11px;&quot; lang=&quot;PL&quot;&gt;B)&lt;/span&gt;&lt;/font&gt;&lt;/p&gt;&lt;p style=&quot;margin-left: 120pt; text-align: justify; text-indent: 24pt; font-size: 11px;&quot; class=&quot;MsoNormal&quot;&gt;&lt;font style=&quot;font-size: 11px;&quot;&gt;&lt;span style=&quot;font-size: 11px;&quot; lang=&quot;PL&quot;&gt;if (&lt;/span&gt;&lt;span style=&quot;font-family: SimSun; font-size: 11px;&quot;&gt;表达式&lt;/span&gt;&lt;span style=&quot;font-size: 11px;&quot; lang=&quot;PL&quot;&gt;C)&lt;/span&gt;&lt;/font&gt;&lt;/p&gt;&lt;p style=&quot;margin-left: 120pt; text-align: justify; text-indent: 24pt; font-size: 11px;&quot; class=&quot;MsoNormal&quot;&gt;&lt;span style=&quot;font-size: 11px;&quot; lang=&quot;PL&quot;&gt;&lt;font style=&quot;font-size: 11px;&quot;&gt;…&lt;/font&gt;&lt;/span&gt;&lt;/p&gt;&lt;p style=&quot;margin-left: 120pt; text-align: justify; text-indent: 24pt; font-size: 11px;&quot; class=&quot;MsoNormal&quot;&gt;&lt;span style=&quot;font-size: 11px;&quot; lang=&quot;PL&quot;&gt;&lt;font style=&quot;font-size: 11px;&quot;&gt;else&lt;/font&gt;&lt;/span&gt;&lt;/p&gt;&lt;p style=&quot;margin-left: 120pt; text-align: justify; text-indent: 24pt; font-size: 11px;&quot; class=&quot;MsoNormal&quot;&gt;&lt;span style=&quot;font-size: 11px;&quot; lang=&quot;PL&quot;&gt;&lt;font style=&quot;font-size: 11px;&quot;&gt;endif&lt;/font&gt;&lt;/span&gt;&lt;/p&gt;&lt;p style=&quot;margin-left: 96pt; text-align: justify; text-indent: 24pt; font-size: 11px;&quot; class=&quot;MsoNormal&quot;&gt;&lt;span style=&quot;font-size: 11px;&quot; lang=&quot;PL&quot;&gt;&lt;font style=&quot;font-size: 11px;&quot;&gt;else&lt;/font&gt;&lt;/span&gt;&lt;/p&gt;&lt;p style=&quot;margin-left: 72pt; text-align: justify; text-indent: 36pt; font-size: 11px;&quot; class=&quot;MsoNormal&quot;&gt;&lt;span style=&quot;font-size: 11px;&quot; lang=&quot;PL&quot;&gt;&lt;font style=&quot;font-size: 11px;&quot;&gt;…&lt;/font&gt;&lt;/span&gt;&lt;/p&gt;&lt;p style=&quot;margin-left: 84pt; text-align: justify; text-indent: 24pt; font-size: 11px;&quot; class=&quot;MsoNormal&quot;&gt;&lt;span style=&quot;font-size: 11px;&quot; lang=&quot;PL&quot;&gt;&lt;font style=&quot;font-size: 11px;&quot;&gt;endif&lt;/font&gt;&lt;/span&gt;&lt;/p&gt;&lt;p style=&quot;margin-left: 48pt; text-align: justify; text-indent: 24pt; font-size: 11px;&quot; class=&quot;MsoNormal&quot;&gt;&lt;span style=&quot;font-size: 11px;&quot; lang=&quot;PL&quot;&gt;&lt;font style=&quot;font-size: 11px;&quot;&gt;else&lt;/font&gt;&lt;/span&gt;&lt;/p&gt;&lt;p style=&quot;margin-left: 48pt; text-align: justify; text-indent: 24pt; font-size: 11px;&quot; class=&quot;MsoNormal&quot;&gt;&lt;span style=&quot;font-size: 11px;&quot; lang=&quot;PL&quot;&gt;&lt;font style=&quot;font-size: 11px;&quot;&gt;…&lt;/font&gt;&lt;/span&gt;&lt;/p&gt;&lt;p style=&quot;margin-left: 48pt; text-align: justify; text-indent: 24pt; font-size: 11px;&quot; class=&quot;MsoNormal&quot;&gt;&lt;span style=&quot;font-size: 11px;&quot; lang=&quot;PL&quot;&gt;&lt;font style=&quot;font-size: 11px;&quot;&gt;endif&lt;/font&gt;&lt;/span&gt;&lt;/p&gt;&lt;p style=&quot;margin-left: 48pt; text-align: justify; text-indent: 24pt; font-size: 11px;&quot; class=&quot;MsoNormal&quot;&gt;&lt;span style=&quot;text-indent: 24pt; background-color: initial; text-align: left; font-family: SimSun;&quot;&gt;其中，表达式&lt;/span&gt;&lt;span style=&quot;text-indent: 24pt; background-color: initial; text-align: left;&quot; lang=&quot;PL&quot;&gt;A&lt;/span&gt;&lt;span style=&quot;text-indent: 24pt; background-color: initial; text-align: left; font-family: SimSun;&quot;&gt;在大部分条件下为&lt;/span&gt;&lt;span style=&quot;text-indent: 24pt; background-color: initial; text-align: left;&quot; lang=&quot;PL&quot;&gt;false&lt;/span&gt;&lt;span style=&quot;text-indent: 24pt; background-color: initial; text-align: left; font-family: SimSun;&quot;&gt;。&lt;/span&gt;&lt;/p&gt;&lt;p style=&quot;text-indent: 24pt; font-size: 11px;&quot; class=&quot;MsoNormal&quot;&gt;&lt;span style=&quot;font-size: 11px;&quot; lang=&quot;PL&quot;&gt;&lt;/span&gt;&lt;/p&gt;&lt;p style=&quot;margin-left:45.0pt;text-indent:-21.0pt;mso-list:l0 level1 lfo1;&lt;br/&gt;tab-stops:list 45.0pt&quot; class=&quot;MsoNormal&quot;&gt;&lt;span style=&quot;font-size:12.0pt;font-family:SimSun;mso-ascii-font-family:&amp;quot;Times New Roman&amp;quot;;&lt;br/&gt;mso-hansi-font-family:&amp;quot;Times New Roman&amp;quot;;mso-bidi-font-family:&amp;quot;Times New Roman&amp;quot;;&lt;br/&gt;mso-ansi-language:PL;mso-fareast-language:ZH-CN;mso-bidi-language:AR-SA&quot;&gt;&lt;br&gt;&lt;/span&gt;&lt;/p&gt;&lt;p style=&quot;margin-left:45.0pt;text-indent:-21.0pt;mso-list:l0 level1 lfo1;&lt;br/&gt;tab-stops:list 45.0pt&quot; class=&quot;MsoNormal&quot;&gt;&lt;font face=&quot;SimSun&quot;&gt;&lt;span style=&quot;font-size: 16px;&quot;&gt;增加中间变量以减少计算量&lt;/span&gt;&lt;/font&gt;&lt;/p&gt;&lt;p style=&quot;margin-left:45.0pt;text-indent:-21.0pt;mso-list:l0 level1 lfo1;&lt;br/&gt;tab-stops:list 45.0pt&quot; class=&quot;MsoNormal&quot;&gt;&lt;font face=&quot;SimSun&quot;&gt;&lt;span style=&quot;font-size: 16px;&quot;&gt;减少不必要的初始化为0的操作&lt;/span&gt;&lt;/font&gt;&lt;/p&gt;&lt;p style=&quot;margin-left:45.0pt;text-indent:-21.0pt;mso-list:l0 level1 lfo1;&lt;br/&gt;tab-stops:list 45.0pt&quot; class=&quot;MsoNormal&quot;&gt;&lt;font face=&quot;SimSun&quot;&gt;&lt;span style=&quot;font-size: 16px;&quot;&gt;临时变量使用&lt;/span&gt;&lt;/font&gt;&lt;/p&gt;&lt;p style=&quot;margin-left:45.0pt;text-indent:-21.0pt;mso-list:l0 level1 lfo1;&lt;br/&gt;tab-stops:list 45.0pt&quot; class=&quot;MsoNormal&quot;&gt;&lt;font face=&quot;SimSun&quot;&gt;&lt;span style=&quot;font-size: 16px;&quot;&gt;优化架构&lt;/span&gt;&lt;/font&gt;&lt;/p&gt;&lt;p style=&quot;margin-left:45.0pt;text-indent:-21.0pt;mso-list:l0 level1 lfo1;&lt;br/&gt;tab-stops:list 45.0pt&quot; class=&quot;MsoNormal&quot;&gt;&lt;font face=&quot;SimSun&quot;&gt;&lt;span style=&quot;font-size: 16px;&quot;&gt;用移位代替除法&lt;/span&gt;&lt;/font&gt;&lt;/p&gt;&lt;p style=&quot;margin-left:45.0pt;text-indent:-21.0pt;mso-list:l0 level1 lfo1;&lt;br/&gt;tab-stops:list 45.0pt&quot; class=&quot;MsoNormal&quot;&gt;&lt;font face=&quot;SimSun&quot;&gt;&lt;span style=&quot;font-size: 16px;&quot;&gt;尽量避免嵌套，节省RAM区使用&lt;/span&gt;&lt;/font&gt;&lt;/p&gt;&lt;p style=&quot;margin-left:45.0pt;text-indent:-21.0pt;mso-list:l0 level1 lfo1;&lt;br/&gt;tab-stops:list 45.0pt&quot; class=&quot;MsoNormal&quot;&gt;&lt;font face=&quot;SimSun&quot;&gt;&lt;span style=&quot;font-size: 16px;&quot;&gt;&lt;br&gt;&lt;/span&gt;&lt;/font&gt;&lt;/p&gt;" style="rounded=0;whiteSpace=wrap;html=1;align=left;" vertex="1" parent="1">
          <mxGeometry x="760" y="-1370" width="660" height="1190" as="geometry" />
        </mxCell>
      </root>
    </mxGraphModel>
  </diagram>
</mxfile>
